# xmcd
# 
# Track frame offsets:
#     150
#     13575
#     26317
#     42249
#     60255
#     80895
#     99324
#     120400
#     132249
#     143593
#     160344
#     183278
# 
# Disc length: 2678
# 
# Revision: 0
# Processed by: cddbd v1.5.2PL0 Copyright (c) Steve Scherf et al.
# Submitted via: fre:ac v1.0.31
# 
DISCID=8d0a740c
DTITLE=John Cowan - SIXTY
DYEAR=0
DGENRE=Country
TTITLE0=Things I Haven't Done
TTITLE1=Why Are You Crying
TTITLE2=Devil Woman
TTITLE3=Miss The Mississippi (And You)
TTITLE4=Helplessness Blues
TTITLE5=Rising From The Ashes
TTITLE6=Happiness
TTITLE7=Fate Full Of Shadow
TTITLE8=Run For Your Life
TTITLE9=Cry For You
TTITLE10=Sugar Babe
TTITLE11=Feel Like Coming Home
EXTD=
EXTT0=
EXTT1=
EXTT2=
EXTT3=
EXTT4=
EXTT5=
EXTT6=
EXTT7=
EXTT8=
EXTT9=
EXTT10=
EXTT11=
PLAYORDER=
